<svg version="1.1" viewBox="0 -5 59 59" xmlns="http://www.w3.org/2000/svg">
  <style>
    path { fill: #D4AF37; }
    @media (prefers-color-scheme: dark) {
      path { fill: #D4AF37; }
    }
  </style>
  <!-- Left horn -->
  <path d="m16.7 18.2c0.4-0.4 0.7-0.7 0.3-0.7-0.7 0-5.2 0.7-6.1-2.7s4-13.5 4.2-13.9c0.1-0.4-0.2-0.9-0.8-0.9-0.5 0-0.9 0.6-1 0.6-5 6.3-12.1 14.1-13 17.5-2.3 8.5 6.6 12 12.2 12.6 0.1 0 0.1-0.1 0.1-0.1v-3c0.1-4.1 1.6-7.2 4.1-9.4"/>
  <!-- e -->
  <path d="m34.6 29.4c0 0.1 0 0.1-0.1 0.2 0 0.1-0.1 0.1-0.2 0.1h-11.8v-2.1c0-2.9 3.5-4.3 6.2-4.3 2.6 0 5.9 1.4 5.9 4.3v1.8zm-5.9-12.6c-6.1 0.1-12.8 3.6-12.8 10.7v10.8c0 7.2 6.7 10.6 12.8 10.7 4.4 0 9.3-1.8 11.7-5.7 0.1-0.1 0-0.3-0.1-0.4-2.1-1.2-3.3-1.9-5.4-3-0.1 0-0.1 0-0.2 0.1-1.1 1.9-4 2.9-6 2.9-2.7 0-6.2-1.7-6.2-4.6v-3.2h16.9c0.9 0 1.6-0.7 1.6-1.6v-5.9c0-7.2-6.3-10.7-12.3-10.8"/>
  <!-- Right horn (translated -97 to match left horn gap symmetrically) -->
  <path transform="translate(-99 0)" d="m155.7 18.1c-0.9-3.4-7.9-11.2-13-17.5-0.1-0.1-0.4-0.6-1-0.6-0.5 0-0.9 0.5-0.7 0.9s5.1 10.6 4.2 13.9c-0.9 3.4-5.4 2.7-6.1 2.7-0.4 0-0.1 0.3 0.3 0.7 2.5 2.2 4.1 5.3 4.1 9.3v3c0 0.1 0 0.1 0.1 0.1 5.7-0.5 14.4-4 12.1-12.5"/>
</svg>
